<svg width="16" height="16" viewBox="0 0 16 16" fill="none" xmlns="http://www.w3.org/2000/svg">
<path d="M6.00033 6.66634H6.66699C6.8438 6.66634 7.01337 6.5961 7.1384 6.47108C7.26342 6.34605 7.33366 6.17649 7.33366 5.99967C7.33366 5.82286 7.26342 5.65329 7.1384 5.52827C7.01337 5.40325 6.8438 5.33301 6.66699 5.33301H6.00033C5.82351 5.33301 5.65395 5.40325 5.52892 5.52827C5.4039 5.65329 5.33366 5.82286 5.33366 5.99967C5.33366 6.17649 5.4039 6.34605 5.52892 6.47108C5.65395 6.5961 5.82351 6.66634 6.00033 6.66634V6.66634ZM6.00033 7.99967C5.82351 7.99967 5.65395 8.06991 5.52892 8.19494C5.4039 8.31996 5.33366 8.48953 5.33366 8.66634C5.33366 8.84315 5.4039 9.01272 5.52892 9.13775C5.65395 9.26277 5.82351 9.33301 6.00033 9.33301H10.0003C10.1771 9.33301 10.3467 9.26277 10.4717 9.13775C10.5968 9.01272 10.667 8.84315 10.667 8.66634C10.667 8.48953 10.5968 8.31996 10.4717 8.19494C10.3467 8.06991 10.1771 7.99967 10.0003 7.99967H6.00033ZM13.3337 5.95967C13.3267 5.89843 13.3133 5.8381 13.2937 5.77967V5.71967C13.2616 5.65113 13.2188 5.58812 13.167 5.53301V5.53301L9.16699 1.53301C9.11188 1.48115 9.04887 1.4384 8.98033 1.40634C8.96043 1.40351 8.94023 1.40351 8.92033 1.40634C8.8526 1.3675 8.77781 1.34257 8.70033 1.33301H4.66699C4.13656 1.33301 3.62785 1.54372 3.25278 1.91879C2.87771 2.29387 2.66699 2.80257 2.66699 3.33301V12.6663C2.66699 13.1968 2.87771 13.7055 3.25278 14.0806C3.62785 14.4556 4.13656 14.6663 4.66699 14.6663H11.3337C11.8641 14.6663 12.3728 14.4556 12.7479 14.0806C13.1229 13.7055 13.3337 13.1968 13.3337 12.6663V5.99967C13.3337 5.99967 13.3337 5.99967 13.3337 5.95967ZM9.33366 3.60634L11.0603 5.33301H10.0003C9.82351 5.33301 9.65394 5.26277 9.52892 5.13775C9.4039 5.01272 9.33366 4.84315 9.33366 4.66634V3.60634ZM12.0003 12.6663C12.0003 12.8432 11.9301 13.0127 11.8051 13.1377C11.68 13.2628 11.5105 13.333 11.3337 13.333H4.66699C4.49018 13.333 4.32061 13.2628 4.19559 13.1377C4.07056 13.0127 4.00033 12.8432 4.00033 12.6663V3.33301C4.00033 3.1562 4.07056 2.98663 4.19559 2.8616C4.32061 2.73658 4.49018 2.66634 4.66699 2.66634H8.00033V4.66634C8.00033 5.19677 8.21104 5.70548 8.58611 6.08056C8.96118 6.45563 9.46989 6.66634 10.0003 6.66634H12.0003V12.6663ZM10.0003 10.6663H6.00033C5.82351 10.6663 5.65395 10.7366 5.52892 10.8616C5.4039 10.9866 5.33366 11.1562 5.33366 11.333C5.33366 11.5098 5.4039 11.6794 5.52892 11.8044C5.65395 11.9294 5.82351 11.9997 6.00033 11.9997H10.0003C10.1771 11.9997 10.3467 11.9294 10.4717 11.8044C10.5968 11.6794 10.667 11.5098 10.667 11.333C10.667 11.1562 10.5968 10.9866 10.4717 10.8616C10.3467 10.7366 10.1771 10.6663 10.0003 10.6663Z" fill="#666666"/>
</svg>
